<?xml version="1.0" encoding="UTF-8"?>
<svg id="_レイヤー_1" data-name="レイヤー_1" xmlns="http://www.w3.org/2000/svg" version="1.1" viewBox="0 0 600 120" fill="currentColor">
  <!-- Generator: Adobe Illustrator 29.8.1, SVG Export Plug-In . SVG Version: 2.1.1 Build 2)  -->
  <path d="M9.28,69.45c0-7.67,1.28-14.88,3.86-21.64,2.57-6.75,5.94-12.43,10.13-17.03,4.18-4.6,8.98-8.23,14.38-10.88s10.97-3.97,16.69-3.97,10.28,1.52,13.69,4.55c3.41,3.03,5.12,7.37,5.12,13s-2.17,10.61-6.5,14.9c-4.34,4.3-9.92,7.1-16.74,8.4-1.23.15-2.03.23-2.42.23-2.84,0-4.26-1.11-4.26-3.34,0-.84.4-1.61,1.21-2.3.81-.69,2.63-1.42,5.47-2.19,4.37-1.23,7.88-3.15,10.53-5.75,2.65-2.61,3.97-5.62,3.97-9.03s-.98-5.89-2.93-7.42c-1.96-1.53-4.66-2.3-8.11-2.3-8.36,0-15.98,4.32-22.84,12.95-6.87,8.63-10.3,18.78-10.3,30.44,0,8.75,1.76,15.48,5.29,20.2,3.53,4.72,8.63,7.08,15.31,7.08s12.72-1.75,18.13-5.24,9.88-8,13.41-13.52c.3-.54.9-.81,1.78-.81s1.78.35,2.7,1.04c.92.69,1.38,1.31,1.38,1.84s-.08.96-.23,1.27c-3.38,7.29-8.71,13.14-16,17.55-7.29,4.41-15.1,6.62-23.42,6.62s-15.29-2.92-20.89-8.75c-5.6-5.83-8.4-14.46-8.4-25.89Z"/>
  <path d="M73.26,81.18c0-6.91,2.47-13.06,7.42-18.47s10.22-8.11,15.82-8.11c3.15,0,4.72.81,4.72,2.42v.69h2.65c2.15,0,3.22,1,3.22,2.99v.69l-3.22,19.79c-.08.31-.12.73-.12,1.27,0,1.84.65,2.76,1.96,2.76,2.91,0,6.37-2.57,10.36-7.71.54-.69,1.07-1.04,1.61-1.04.77,0,1.42.6,1.96,1.78.54,1.19.81,2.23.81,3.11s-.08,1.55-.23,2.01c-1.77,2.46-4.07,4.7-6.9,6.73-2.84,2.03-5.54,3.05-8.11,3.05s-4.57-.67-5.99-2.01c-1.42-1.34-2.28-3.16-2.59-5.47v.23c-1.31,2.46-3.03,4.37-5.18,5.75-2.23,1.38-4.87,2.07-7.94,2.07s-5.54-1.17-7.42-3.51c-1.88-2.34-2.82-5.35-2.82-9.03ZM86.26,85.67c2.07,0,4.05-1.15,5.93-3.45,1.88-2.3,3.16-4.83,3.85-7.6l3.11-12.89c-4.45,0-8.44,2.11-11.97,6.33-3.53,4.22-5.29,8.21-5.29,11.97s1.46,5.64,4.37,5.64Z"/>
  <path d="M122.97,78.65c1.38-4.37,3.97-9.36,7.77-14.96,3.8-5.6,6.88-8.4,9.26-8.4,3.38,0,5.06,1.31,5.06,3.91,0,1.69-.4,3.63-1.21,5.81-.81,2.19-1.21,3.51-1.21,3.97,0,1.15.82,1.73,2.47,1.73s4.35-1.11,8.11-3.34c.15-.08.46-.12.92-.12s1.05.42,1.78,1.27c.73.84,1.09,1.59,1.09,2.24s-.15,1.13-.46,1.44c-4.6,4.14-9.09,6.21-13.46,6.21-5.22,0-7.83-2.22-7.83-6.68,0-.15.61-2.65,1.84-7.48-.08,0-.69.92-1.84,2.76-3.61,5.98-7.13,13.69-10.59,23.13-1,2-2.65,2.99-4.95,2.99-3.15,0-4.72-2.53-4.72-7.6v-.92c0-8.29,1.19-16.38,3.57-24.28,1.15-3.45,2.99-5.18,5.52-5.18,1,0,1.8.31,2.42.92.61.61.92,1.38.92,2.3l-4.49,20.25Z"/>
  <path d="M150.02,81.18c0-6.91,2.47-13.06,7.42-18.47s10.22-8.11,15.82-8.11c3.15,0,4.72.81,4.72,2.42v.69h2.65c2.15,0,3.22,1,3.22,2.99v.69l-3.22,19.79c-.08.31-.12.73-.12,1.27,0,1.84.65,2.76,1.96,2.76,2.91,0,6.37-2.57,10.36-7.71.54-.69,1.07-1.04,1.61-1.04.77,0,1.42.6,1.96,1.78.54,1.19.81,2.23.81,3.11s-.08,1.55-.23,2.01c-1.77,2.46-4.07,4.7-6.9,6.73-2.84,2.03-5.54,3.05-8.11,3.05s-4.57-.67-5.99-2.01c-1.42-1.34-2.28-3.16-2.59-5.47v.23c-1.31,2.46-3.03,4.37-5.18,5.75-2.23,1.38-4.87,2.07-7.94,2.07s-5.54-1.17-7.42-3.51c-1.88-2.34-2.82-5.35-2.82-9.03ZM163.02,85.67c2.07,0,4.05-1.15,5.93-3.45,1.88-2.3,3.16-4.83,3.85-7.6l3.11-12.89c-4.45,0-8.44,2.11-11.97,6.33-3.53,4.22-5.29,8.21-5.29,11.97s1.46,5.64,4.37,5.64Z"/>
  <path d="M211.93,87.17c0-3.84,1.42-11.2,4.26-22.1-4.53,6.52-8.71,13.66-12.54,21.4-1,2.07-1.94,3.63-2.82,4.66s-1.55,1.63-2.01,1.78c-.46.15-1.11.23-1.96.23-2.99,0-4.49-2.42-4.49-7.25,0-8.9,1.5-17.84,4.49-26.81.84-2.61,2.3-3.91,4.37-3.91.77,0,1.46.23,2.07.69.61.46.92,1,.92,1.61s-.04,1.04-.12,1.27c-1.92,6.21-3.34,13.31-4.26,21.29,3.37-8.44,6.75-14.65,10.13-18.64,3.38-3.99,6.29-5.99,8.75-5.99,1.07,0,2.03.31,2.88.92.84.61,1.27,1.46,1.27,2.53,0,3.53-1.23,10.13-3.68,19.79,5.91-15.57,12.08-23.36,18.53-23.36,3.45,0,5.18,1.73,5.18,5.18,0,2.23-.94,6-2.82,11.34-1.88,5.33-2.82,9.42-2.82,12.26,0,2,.92,2.99,2.76,2.99.54,0,.92-.04,1.15-.12,1.99-.46,5.52-3.15,10.59-8.06.31-.3.77-.46,1.38-.46s1.32.37,2.13,1.09c.81.73,1.21,1.27,1.21,1.61s-.08.67-.23.98c-2.46,3.38-5.47,6.1-9.03,8.17-3.57,2.07-6.66,3.11-9.26,3.11h-.23c-2.46,0-4.37-.75-5.75-2.24s-2.07-3.4-2.07-5.7v-1.04c.38-3.53,2.11-10.16,5.18-19.91-3.38,2.84-8.17,11.13-14.38,24.86-1.23,2.53-2.65,3.8-4.26,3.8-2.99,0-4.49-1.99-4.49-5.98Z"/>
  <path d="M251.06,78.31c0-5.68,1.86-10.95,5.58-15.82,3.72-4.87,8.23-7.31,13.52-7.31,3.15,0,5.75.88,7.83,2.65,2.07,1.77,3.11,4.14,3.11,7.14,0,4.22-1.73,7.64-5.18,10.24-3.45,2.61-8.67,4.64-15.65,6.1,1.07,3.3,3.84,4.95,8.29,4.95,6.14,0,11.93-2.61,17.38-7.83.3-.31.79-.46,1.44-.46s1.27.27,1.84.81c.57.54.86,1.19.86,1.96s-.27,1.54-.81,2.3c-1.92,2.69-4.95,5.16-9.09,7.42-4.14,2.26-8.46,3.39-12.95,3.39s-8.31-1.32-11.45-3.97c-3.15-2.65-4.72-6.5-4.72-11.57ZM270.33,62.66c-2.49,0-4.89,1.44-7.19,4.32-2.3,2.88-3.45,5.97-3.45,9.26,9.59-3.3,14.38-6.75,14.38-10.36,0-2.15-1.25-3.22-3.74-3.22Z"/>
  <path d="M299.5,93.5c-3.84,0-6.79-1.55-8.86-4.66-2.07-3.11-3.11-7.35-3.11-12.72,0-1.61.04-2.84.12-3.68,1-11.12,3.91-22.71,8.75-34.75,2.38-5.75,5.33-10.53,8.86-14.33,3.53-3.8,7.25-5.7,11.16-5.7,2.3,0,4.14.75,5.52,2.24,1.38,1.5,2.07,3.36,2.07,5.58v.92c-.77,7.75-3.91,15.84-9.44,24.28-5.52,8.44-11.62,15.27-18.3,20.48-.31,2.46-.46,4.34-.46,5.64,0,6.21,1.84,9.32,5.52,9.32s8.09-2.69,12.77-8.06c.54-.54,1.21-.81,2.01-.81s1.57.33,2.3.98c.73.65,1.09,1.46,1.09,2.42s-.46,1.94-1.38,2.93c-5.83,6.6-12.04,9.9-18.64,9.9ZM313.54,27.1c-3.22,0-6.46,4.1-9.72,12.31-3.26,8.21-5.47,16-6.62,23.36,4.53-5.06,8.69-10.82,12.49-17.26s5.73-11.81,5.81-16.11c0-1.53-.65-2.3-1.96-2.3Z"/>
  <path d="M375.57,23.07c-5.37,0-10.86.96-16.46,2.88-5.6,1.92-10.32,4.53-14.15,7.83-1.38,1.15-2.74,1.73-4.09,1.73s-2.49-.5-3.45-1.5c-.96-1-1.44-2.05-1.44-3.16s.38-2.01,1.15-2.71c5.14-4.68,11.24-8.27,18.3-10.76,7.06-2.49,14.6-3.74,22.61-3.74s14.98,1.94,20.89,5.81c5.91,3.87,8.86,9.09,8.86,15.65s-2.3,11.95-6.91,16.17c-3.84,3.68-9.4,5.83-16.69,6.44,4.45.77,8.32,2.53,11.62,5.29,3.3,2.76,4.95,6.33,4.95,10.7s-2.15,8.84-6.44,13.41c-4.3,4.57-9.78,8.23-16.46,10.99-6.67,2.76-12.91,4.14-18.7,4.14s-10.11-.62-12.95-1.84c-2.84-1.23-4.26-2.92-4.26-5.06,0-17.03,1.55-31.51,4.66-43.44,3.11-11.93,7.27-17.89,12.49-17.89,1.92,0,3.49.96,4.72,2.88-3.45,4.53-6.16,12.24-8.11,23.13-1.96,10.89-2.93,21.1-2.93,30.61,0,1.08.04,1.8.11,2.19.23,1,1.53,1.5,3.91,1.5,8.44,0,15.86-2.17,22.27-6.5,6.41-4.33,9.61-9.07,9.61-14.21,0-2.84-.81-5.14-2.42-6.91-1.61-1.76-3.59-3.01-5.93-3.74-2.34-.73-4.68-1.3-7.02-1.73-2.34-.42-4.32-.94-5.93-1.55-1.61-.61-2.42-1.46-2.42-2.53,0-1.99,1.65-2.99,4.95-2.99l3.68.12h.57c3.99,0,7.48-.54,10.47-1.61,2.99-1.07,5.25-2.46,6.79-4.14,2.84-3.38,4.26-6.79,4.26-10.24,0-4.99-1.88-8.76-5.64-11.34-3.76-2.57-8.59-3.86-14.5-3.86Z"/>
  <path d="M419.53,93.73c-3.84,0-6.98-1.38-9.44-4.14-2.46-2.76-3.68-6.21-3.68-10.36,0-6.29,2.05-11.87,6.16-16.74,4.1-4.87,8.92-7.31,14.44-7.31,3.22,0,5.93,1.15,8.11,3.45s3.28,5.22,3.28,8.75c0,.77-.15,2-.46,3.68,4.99-.92,9.94-4.14,14.85-9.67.31-.31.71-.46,1.21-.46s1.02.37,1.55,1.09c.54.73.81,1.46.81,2.19s-.15,1.25-.46,1.55c-5.14,6.37-11.51,10.59-19.1,12.66-2.53,10.2-8.29,15.31-17.26,15.31ZM421.26,86.36c1.99,0,3.85-1.11,5.58-3.34,1.73-2.22,2.7-4.45,2.93-6.67-2.84-1.23-4.26-2.8-4.26-4.72s1-3.83,2.99-5.75c-.08-1-.33-1.73-.75-2.19-.42-.46-1.02-.69-1.78-.69-2.92,0-5.41,1.71-7.48,5.12s-3.11,6.96-3.11,10.65c0,5.06,1.96,7.59,5.87,7.59Z"/>
  <path d="M443.47,81.18c0-6.91,2.47-13.06,7.42-18.47s10.22-8.11,15.82-8.11c3.15,0,4.72.81,4.72,2.42v.69h2.65c2.15,0,3.22,1,3.22,2.99v.69l-3.22,19.79c-.08.31-.11.73-.11,1.27,0,1.84.65,2.76,1.96,2.76,2.91,0,6.37-2.57,10.36-7.71.54-.69,1.07-1.04,1.61-1.04.77,0,1.42.6,1.96,1.78.54,1.19.81,2.23.81,3.11s-.08,1.55-.23,2.01c-1.77,2.46-4.07,4.7-6.9,6.73-2.84,2.03-5.54,3.05-8.11,3.05s-4.57-.67-5.98-2.01c-1.42-1.34-2.28-3.16-2.59-5.47v.23c-1.31,2.46-3.03,4.37-5.18,5.75-2.23,1.38-4.87,2.07-7.94,2.07s-5.54-1.17-7.42-3.51c-1.88-2.34-2.82-5.35-2.82-9.03ZM456.47,85.67c2.07,0,4.05-1.15,5.93-3.45,1.88-2.3,3.16-4.83,3.86-7.6l3.11-12.89c-4.45,0-8.44,2.11-11.97,6.33-3.53,4.22-5.29,8.21-5.29,11.97s1.46,5.64,4.37,5.64Z"/>
  <path d="M493.18,78.65c1.38-4.37,3.97-9.36,7.77-14.96,3.8-5.6,6.88-8.4,9.26-8.4,3.38,0,5.06,1.31,5.06,3.91,0,1.69-.4,3.63-1.21,5.81-.81,2.19-1.21,3.51-1.21,3.97,0,1.15.82,1.73,2.47,1.73s4.35-1.11,8.11-3.34c.15-.08.46-.12.92-.12s1.05.42,1.78,1.27c.73.84,1.09,1.59,1.09,2.24s-.15,1.13-.46,1.44c-4.6,4.14-9.09,6.21-13.46,6.21-5.22,0-7.82-2.22-7.82-6.68,0-.15.61-2.65,1.84-7.48-.08,0-.69.92-1.84,2.76-3.61,5.98-7.14,13.69-10.59,23.13-1,2-2.65,2.99-4.95,2.99-3.15,0-4.72-2.53-4.72-7.6v-.92c0-8.29,1.19-16.38,3.57-24.28,1.15-3.45,2.99-5.18,5.52-5.18,1,0,1.8.31,2.42.92.61.61.92,1.38.92,2.3l-4.49,20.25Z"/>
  <path d="M520.34,80.03c0-6.29,1.99-12.03,5.98-17.21,3.99-5.18,8.55-7.77,13.69-7.77,1.3,0,2.65.23,4.03.69,3.53-25.47,10.66-38.21,21.41-38.21,2.3,0,4.24.77,5.81,2.3,1.57,1.54,2.43,3.34,2.59,5.41.08.54.12,1.34.12,2.42,0,6.75-1.96,13.69-5.87,20.83-2.15,3.99-3.86,7.02-5.12,9.09-1.27,2.07-3.47,5.37-6.62,9.9-3.15,4.53-4.95,7.13-5.41,7.82v1.04c0,6.6,1.76,9.9,5.29,9.9,3.99,0,8.13-2.8,12.43-8.4.38-.38,1-.57,1.84-.57s1.65.34,2.42,1.04c.77.69,1.15,1.5,1.15,2.42s-.31,1.8-.92,2.65c-5.29,6.75-11.24,10.13-17.84,10.13-5.14,0-8.9-2.65-11.28-7.94-2.23,5.45-6.25,8.17-12.08,8.17-3.3,0-6.06-1.27-8.29-3.8-2.23-2.53-3.34-5.83-3.34-9.9ZM533.8,85.67c2.15,0,3.89-1.02,5.24-3.05,1.34-2.03,2.4-5.73,3.16-11.11l1.38-8.75c-4.07,0-7.44,1.69-10.13,5.06-2.69,3.38-4.03,7.14-4.03,11.28v1.27c.23,3.53,1.69,5.29,4.37,5.29ZM563.72,27.1c-2.53,0-4.57,2.07-6.1,6.21-.84,2.07-1.71,4.62-2.59,7.65-.88,3.03-2.17,10.76-3.86,23.19.31-.46.61-1,.92-1.61.15-.15,1.07-1.55,2.76-4.2,1.69-2.65,3.18-5.12,4.49-7.42,1.3-2.3,2.72-5.41,4.26-9.32,1.53-3.91,2.3-7.31,2.3-10.18s-.73-4.32-2.19-4.32Z"/>
</svg>
