<?xml version="1.0" encoding="UTF-8"?>
<svg id="_レイヤー_1" data-name="レイヤー_1" xmlns="http://www.w3.org/2000/svg" version="1.1" viewBox="0 0 600 120">
  <!-- Generator: Adobe Illustrator 29.8.1, SVG Export Plug-In . SVG Version: 2.1.1 Build 2)  -->
  <path d="M28.62,67.74c0-6.44,1.08-12.49,3.24-18.16,2.16-5.67,4.99-10.43,8.5-14.29,3.51-3.86,7.53-6.91,12.07-9.13s9.21-3.33,14.01-3.33,8.63,1.27,11.49,3.82c2.86,2.54,4.3,6.18,4.3,10.91s-1.82,8.9-5.46,12.51c-3.64,3.61-8.32,5.96-14.05,7.05-1.03.13-1.71.19-2.03.19-2.38,0-3.57-.93-3.57-2.8,0-.71.34-1.35,1.01-1.93.68-.58,2.21-1.19,4.59-1.84,3.67-1.03,6.62-2.64,8.84-4.83,2.22-2.19,3.33-4.72,3.33-7.58s-.82-4.94-2.46-6.23c-1.64-1.29-3.91-1.93-6.81-1.93-7.02,0-13.41,3.62-19.17,10.87-5.76,7.24-8.64,15.76-8.64,25.55,0,7.34,1.48,12.99,4.44,16.95,2.96,3.96,7.24,5.94,12.85,5.94s10.67-1.46,15.21-4.39,8.29-6.71,11.25-11.35c.26-.45.76-.68,1.5-.68s1.5.29,2.27.87c.77.58,1.16,1.1,1.16,1.55s-.06.81-.19,1.06c-2.83,6.12-7.31,11.03-13.43,14.73-6.12,3.7-12.67,5.55-19.66,5.55s-12.83-2.45-17.53-7.34c-4.7-4.89-7.05-12.14-7.05-21.73Z"/>
  <path d="M82.33,77.6c0-5.8,2.08-10.96,6.23-15.5s8.58-6.81,13.28-6.81c2.64,0,3.96.68,3.96,2.03v.58h2.22c1.8,0,2.71.84,2.71,2.51v.58l-2.71,16.61c-.06.26-.1.61-.1,1.06,0,1.54.55,2.32,1.64,2.32,2.45,0,5.34-2.16,8.69-6.47.45-.58.9-.87,1.35-.87.64,0,1.19.5,1.64,1.5.45,1,.68,1.87.68,2.61s-.07,1.3-.19,1.69c-1.48,2.06-3.41,3.95-5.79,5.65-2.38,1.71-4.65,2.56-6.81,2.56s-3.83-.56-5.02-1.69c-1.19-1.13-1.92-2.66-2.17-4.59v.19c-1.1,2.06-2.54,3.67-4.35,4.83-1.87,1.16-4.09,1.74-6.66,1.74s-4.65-.98-6.23-2.95c-1.58-1.96-2.37-4.49-2.37-7.58ZM93.24,81.36c1.74,0,3.4-.97,4.97-2.9,1.58-1.93,2.66-4.06,3.24-6.38l2.61-10.82c-3.74,0-7.08,1.77-10.04,5.31-2.96,3.54-4.44,6.89-4.44,10.05s1.22,4.73,3.67,4.73Z"/>
  <path d="M124.05,75.47c1.16-3.67,3.33-7.86,6.52-12.56,3.19-4.7,5.78-7.05,7.78-7.05,2.83,0,4.25,1.1,4.25,3.28,0,1.42-.34,3.04-1.01,4.88-.68,1.83-1.01,2.95-1.01,3.33,0,.97.69,1.45,2.08,1.45s3.65-.93,6.81-2.8c.13-.06.39-.1.77-.1s.88.35,1.5,1.06c.61.71.92,1.34.92,1.88s-.13.95-.39,1.21c-3.86,3.48-7.63,5.22-11.3,5.22-4.38,0-6.57-1.87-6.57-5.6,0-.13.51-2.22,1.54-6.28-.06,0-.58.77-1.54,2.32-3.03,5.02-5.99,11.49-8.89,19.41-.84,1.68-2.22,2.51-4.15,2.51-2.64,0-3.96-2.12-3.96-6.38v-.77c0-6.95,1-13.75,2.99-20.38.97-2.9,2.51-4.35,4.64-4.35.84,0,1.51.26,2.03.77.51.52.77,1.16.77,1.93l-3.77,17Z"/>
  <path d="M146.75,77.6c0-5.8,2.08-10.96,6.23-15.5s8.58-6.81,13.28-6.81c2.64,0,3.96.68,3.96,2.03v.58h2.22c1.8,0,2.71.84,2.71,2.51v.58l-2.71,16.61c-.06.26-.1.61-.1,1.06,0,1.54.55,2.32,1.64,2.32,2.45,0,5.34-2.16,8.69-6.47.45-.58.9-.87,1.35-.87.64,0,1.19.5,1.64,1.5.45,1,.68,1.87.68,2.61s-.07,1.3-.19,1.69c-1.48,2.06-3.41,3.95-5.79,5.65-2.38,1.71-4.65,2.56-6.81,2.56s-3.83-.56-5.02-1.69c-1.19-1.13-1.92-2.66-2.17-4.59v.19c-1.1,2.06-2.54,3.67-4.35,4.83-1.87,1.16-4.09,1.74-6.66,1.74s-4.65-.98-6.23-2.95c-1.58-1.96-2.37-4.49-2.37-7.58ZM157.67,81.36c1.74,0,3.4-.97,4.97-2.9,1.58-1.93,2.66-4.06,3.24-6.38l2.61-10.82c-3.74,0-7.08,1.77-10.04,5.31-2.96,3.54-4.44,6.89-4.44,10.05s1.22,4.73,3.67,4.73Z"/>
  <path d="M198.71,82.62c0-3.22,1.19-9.4,3.57-18.54-3.8,5.47-7.31,11.46-10.53,17.96-.84,1.74-1.63,3.04-2.37,3.91s-1.3,1.37-1.69,1.5c-.39.13-.93.19-1.64.19-2.51,0-3.77-2.03-3.77-6.08,0-7.47,1.25-14.97,3.77-22.51.71-2.19,1.93-3.28,3.67-3.28.64,0,1.22.19,1.74.58.51.39.77.84.77,1.35s-.03.87-.1,1.06c-1.61,5.22-2.8,11.17-3.57,17.87,2.83-7.08,5.67-12.3,8.5-15.65,2.83-3.35,5.28-5.02,7.34-5.02.9,0,1.71.26,2.42.77.71.52,1.06,1.22,1.06,2.12,0,2.96-1.03,8.5-3.09,16.61,4.96-13.07,10.14-19.61,15.55-19.61,2.9,0,4.35,1.45,4.35,4.35,0,1.87-.79,5.04-2.37,9.51-1.58,4.48-2.37,7.91-2.37,10.29,0,1.68.77,2.51,2.32,2.51.45,0,.77-.03.97-.1,1.67-.39,4.64-2.64,8.89-6.76.26-.26.64-.39,1.16-.39s1.11.31,1.79.92c.68.61,1.01,1.06,1.01,1.35s-.06.56-.19.82c-2.06,2.83-4.59,5.12-7.58,6.86-2.99,1.74-5.59,2.61-7.78,2.61h-.19c-2.06,0-3.67-.63-4.83-1.88s-1.74-2.85-1.74-4.78v-.87c.32-2.96,1.77-8.53,4.35-16.71-2.83,2.38-6.86,9.34-12.07,20.86-1.03,2.12-2.22,3.19-3.57,3.19-2.51,0-3.77-1.67-3.77-5.02Z"/>
  <path d="M231.55,75.18c0-4.76,1.56-9.19,4.68-13.28,3.12-4.09,6.91-6.13,11.35-6.13,2.64,0,4.83.74,6.57,2.22,1.74,1.48,2.61,3.48,2.61,5.99,0,3.54-1.45,6.41-4.35,8.6-2.9,2.19-7.28,3.9-13.14,5.12.9,2.77,3.22,4.15,6.96,4.15,5.15,0,10.01-2.19,14.58-6.57.26-.26.66-.39,1.21-.39s1.06.23,1.55.68c.48.45.72,1,.72,1.64s-.23,1.29-.68,1.93c-1.61,2.25-4.15,4.33-7.63,6.23-3.48,1.9-7.1,2.85-10.87,2.85s-6.97-1.11-9.61-3.33c-2.64-2.22-3.96-5.46-3.96-9.71ZM247.73,62.05c-2.09,0-4.11,1.21-6.04,3.62-1.93,2.41-2.9,5.01-2.9,7.78,8.05-2.77,12.07-5.67,12.07-8.69,0-1.8-1.05-2.7-3.14-2.7Z"/>
  <path d="M272.22,87.93c-3.22,0-5.7-1.3-7.44-3.91-1.74-2.61-2.61-6.17-2.61-10.67,0-1.35.03-2.38.1-3.09.84-9.34,3.28-19.06,7.34-29.17,2-4.83,4.47-8.84,7.44-12.03,2.96-3.19,6.08-4.78,9.37-4.78,1.93,0,3.48.63,4.64,1.88,1.16,1.26,1.74,2.82,1.74,4.68v.77c-.64,6.5-3.28,13.3-7.92,20.38-4.64,7.08-9.75,12.81-15.36,17.19-.26,2.06-.39,3.64-.39,4.73,0,5.22,1.55,7.82,4.64,7.82s6.79-2.25,10.72-6.76c.45-.45,1.01-.68,1.69-.68s1.32.27,1.93.82c.61.55.92,1.22.92,2.03s-.39,1.63-1.16,2.46c-4.89,5.54-10.11,8.31-15.65,8.31ZM284,32.2c-2.7,0-5.43,3.45-8.16,10.33-2.74,6.89-4.59,13.43-5.55,19.61,3.8-4.25,7.29-9.08,10.48-14.49s4.81-9.92,4.88-13.52c0-1.29-.55-1.93-1.64-1.93Z"/>
  <path d="M336.06,28.82c-4.51,0-9.11.81-13.81,2.42-4.7,1.61-8.66,3.8-11.88,6.57-1.16.97-2.3,1.45-3.43,1.45s-2.09-.42-2.9-1.25c-.81-.84-1.21-1.72-1.21-2.66s.32-1.69.97-2.27c4.31-3.93,9.43-6.94,15.36-9.03,5.92-2.09,12.25-3.14,18.98-3.14s12.57,1.63,17.53,4.88c4.96,3.25,7.44,7.63,7.44,13.14s-1.93,10.03-5.8,13.57c-3.22,3.09-7.89,4.89-14.01,5.41,3.73.64,6.99,2.12,9.76,4.44,2.77,2.32,4.15,5.31,4.15,8.98s-1.8,7.42-5.41,11.25c-3.61,3.83-8.21,6.91-13.81,9.22-5.6,2.32-10.83,3.48-15.7,3.48s-8.48-.52-10.87-1.55c-2.38-1.03-3.57-2.45-3.57-4.25,0-14.29,1.3-26.45,3.91-36.46,2.61-10.01,6.1-15.02,10.48-15.02,1.61,0,2.93.81,3.96,2.41-2.9,3.8-5.17,10.27-6.81,19.42-1.64,9.14-2.46,17.71-2.46,25.69,0,.9.03,1.51.1,1.83.19.84,1.29,1.26,3.28,1.26,7.08,0,13.31-1.82,18.69-5.46,5.38-3.64,8.07-7.61,8.07-11.93,0-2.38-.68-4.31-2.03-5.8-1.35-1.48-3.01-2.53-4.97-3.14-1.96-.61-3.93-1.09-5.89-1.45-1.97-.35-3.62-.79-4.97-1.3-1.35-.51-2.03-1.22-2.03-2.12,0-1.67,1.38-2.51,4.15-2.51l3.09.1h.48c3.35,0,6.28-.45,8.79-1.35,2.51-.9,4.41-2.06,5.7-3.48,2.38-2.83,3.57-5.7,3.57-8.6,0-4.18-1.58-7.36-4.73-9.51-3.16-2.16-7.21-3.24-12.17-3.24Z"/>
  <path d="M372.96,88.12c-3.22,0-5.86-1.16-7.92-3.48-2.06-2.32-3.09-5.22-3.09-8.69,0-5.28,1.72-9.96,5.17-14.05,3.44-4.09,7.49-6.13,12.12-6.13,2.71,0,4.97.97,6.81,2.9s2.75,4.38,2.75,7.34c0,.64-.13,1.67-.39,3.09,4.19-.77,8.34-3.48,12.46-8.11.26-.26.59-.39,1.01-.39s.85.31,1.3.92c.45.61.68,1.22.68,1.83s-.13,1.05-.39,1.3c-4.31,5.35-9.66,8.89-16.03,10.62-2.12,8.56-6.95,12.85-14.49,12.85ZM374.41,81.94c1.67,0,3.24-.93,4.68-2.8,1.45-1.87,2.27-3.73,2.46-5.6-2.38-1.03-3.57-2.35-3.57-3.96s.84-3.22,2.51-4.83c-.07-.84-.27-1.45-.63-1.83-.35-.39-.85-.58-1.5-.58-2.45,0-4.54,1.43-6.28,4.3s-2.61,5.84-2.61,8.93c0,4.25,1.64,6.37,4.93,6.37Z"/>
  <path d="M393.05,77.6c0-5.8,2.08-10.96,6.23-15.5s8.58-6.81,13.28-6.81c2.64,0,3.96.68,3.96,2.03v.58h2.22c1.8,0,2.71.84,2.71,2.51v.58l-2.71,16.61c-.06.26-.1.61-.1,1.06,0,1.54.55,2.32,1.64,2.32,2.45,0,5.34-2.16,8.69-6.47.45-.58.9-.87,1.35-.87.64,0,1.19.5,1.64,1.5.45,1,.68,1.87.68,2.61s-.06,1.3-.19,1.69c-1.48,2.06-3.41,3.95-5.79,5.65-2.38,1.71-4.65,2.56-6.81,2.56s-3.83-.56-5.02-1.69c-1.19-1.13-1.92-2.66-2.17-4.59v.19c-1.1,2.06-2.54,3.67-4.35,4.83-1.87,1.16-4.09,1.74-6.66,1.74s-4.65-.98-6.23-2.95c-1.58-1.96-2.37-4.49-2.37-7.58ZM403.96,81.36c1.74,0,3.4-.97,4.97-2.9,1.58-1.93,2.66-4.06,3.24-6.38l2.61-10.82c-3.74,0-7.08,1.77-10.04,5.31-2.96,3.54-4.44,6.89-4.44,10.05s1.22,4.73,3.67,4.73Z"/>
  <path d="M434.77,75.47c1.16-3.67,3.33-7.86,6.52-12.56,3.19-4.7,5.78-7.05,7.78-7.05,2.83,0,4.25,1.1,4.25,3.28,0,1.42-.34,3.04-1.01,4.88-.68,1.83-1.01,2.95-1.01,3.33,0,.97.69,1.45,2.08,1.45s3.65-.93,6.81-2.8c.13-.06.39-.1.77-.1s.88.35,1.5,1.06c.61.71.92,1.34.92,1.88s-.13.95-.39,1.21c-3.86,3.48-7.63,5.22-11.3,5.22-4.38,0-6.57-1.87-6.57-5.6,0-.13.51-2.22,1.54-6.28-.06,0-.58.77-1.54,2.32-3.03,5.02-5.99,11.49-8.89,19.41-.84,1.68-2.22,2.51-4.15,2.51-2.64,0-3.96-2.12-3.96-6.38v-.77c0-6.95,1-13.75,2.99-20.38.97-2.9,2.51-4.35,4.64-4.35.84,0,1.51.26,2.03.77.51.52.77,1.16.77,1.93l-3.77,17Z"/>
  <path d="M457.57,76.63c0-5.28,1.67-10.09,5.02-14.44,3.35-4.35,7.18-6.52,11.49-6.52,1.09,0,2.22.19,3.38.58,2.96-21.38,8.95-32.07,17.97-32.07,1.93,0,3.56.64,4.88,1.93,1.32,1.29,2.04,2.8,2.17,4.54.06.45.1,1.13.1,2.03,0,5.67-1.64,11.49-4.93,17.48-1.8,3.35-3.24,5.89-4.3,7.63-1.06,1.74-2.91,4.51-5.55,8.31-2.64,3.8-4.15,5.99-4.54,6.57v.87c0,5.54,1.48,8.31,4.44,8.31,3.35,0,6.83-2.35,10.43-7.05.32-.32.84-.48,1.55-.48s1.38.29,2.03.87c.64.58.97,1.26.97,2.03s-.26,1.51-.77,2.22c-4.44,5.67-9.43,8.5-14.97,8.5-4.32,0-7.47-2.22-9.47-6.67-1.87,4.57-5.25,6.86-10.14,6.86-2.77,0-5.09-1.06-6.96-3.19-1.87-2.12-2.8-4.89-2.8-8.31ZM468.87,81.36c1.8,0,3.27-.85,4.39-2.56,1.13-1.71,2.01-4.81,2.66-9.32l1.16-7.34c-3.41,0-6.25,1.42-8.5,4.25-2.25,2.83-3.38,5.99-3.38,9.47v1.06c.19,2.96,1.42,4.44,3.67,4.44ZM493.98,32.2c-2.12,0-3.83,1.74-5.12,5.22-.71,1.74-1.43,3.88-2.17,6.42-.74,2.54-1.82,9.03-3.24,19.46.26-.39.51-.84.77-1.35.13-.13.9-1.3,2.32-3.53,1.42-2.22,2.67-4.3,3.77-6.23,1.09-1.93,2.28-4.54,3.57-7.82,1.29-3.28,1.93-6.13,1.93-8.55s-.61-3.62-1.83-3.62Z"/>
</svg>