<?xml version="1.0" encoding="UTF-8"?>
<svg xmlns="http://www.w3.org/2000/svg" xmlns:xlink="http://www.w3.org/1999/xlink" version="1.1" viewBox="0 0 512 512">
  <!-- Generator: Adobe Illustrator 29.6.0, SVG Export Plug-In . SVG Version: 2.1.1 Build 207)  -->
  <defs>
    <style>
      .st0 {
        isolation: isolate;
      }

      .st1 {
        fill: #dd7f10;
      }

      .st2 {
        fill: #f4ca27;
        mix-blend-mode: multiply;
      }

      .st3 {
        fill: #f8e89f;
      }

      .st4 {
        fill: url(#_名称未設定グラデーション_13);
      }
    </style>
    <linearGradient id="_名称未設定グラデーション_13" data-name="名称未設定グラデーション 13" x1="332.66" y1="94.56" x2="92.57" y2="660.29" gradientUnits="userSpaceOnUse">
      <stop offset=".35" stop-color="#f4a131"/>
      <stop offset="1" stop-color="#ca6816"/>
    </linearGradient>
  </defs>
  <g class="st0">
    <g id="_レイヤー_1" data-name="レイヤー_1">
      <path class="st4" d="M475.97,350.64c.67-30.52,1.33-61.03,2-91.55.63-28.65,4.27-59.17-.76-87.54-.56-3.18-1.31-6.47-3.33-8.98-1.95-2.42-4.85-3.84-7.66-5.18-45.97-21.93-92.26-43.21-138.85-63.82-14.54-6.43-29.12-8.43-43.69-14.8-2.76-1.21-5.55-2.42-8.5-3.01-3.42-.68-6.95-.48-10.42-.25-41.56,2.81-82.72,6.87-122.07,20.49-19.93,6.9-39.41,15.13-58.24,24.64-8.03,4.05-15.44,7.81-23.85,10.68-7.48,2.56-16.8,6.65-21.07,13.79-2.53,4.23-2.87,9.37-3.13,14.3-3.27,61.67-4.84,123.43-4.72,185.18.02,9.16.13,18.6,3.68,27.04,5.97,14.19,20.31,22.72,33.89,29.96,44.05,23.48,89.82,43.72,136.84,60.48,9.11,3.25,18.36,6.39,27.97,7.49,13.36,1.53,26.83-.93,39.99-3.7,29.47-6.21,58.57-14.02,87.66-21.83,32.63-8.76,65.27-17.52,97.9-26.28,3.34-.9,6.9-1.92,9.15-4.55,1.87-2.18,2.53-5.13,3.05-7.96,3.34-17.97,3.75-36.34,4.15-54.62Z"/>
      <path class="st2" d="M238.61,448.3c-.13,4.51-.18,9.34,2.5,13.12,4.81,6.8,15.51,6.84,24.28,5.79,34.46-4.12,67.96-13.15,101.3-22.14,30.8-8.31,61.6-16.62,92.4-24.93,4.22-1.14,8.67-2.41,11.58-5.43,3.13-3.24,3.83-7.82,4.36-12.12,5.06-41.69,5.26-83.86.6-125.59-1.57-14.06,4.29-28.14,3.35-42.25-1.07-15.98,4.69-57.92-1.76-63.21s-127.4,35.83-187.5,50.65c-15.5,3.82-31.11,7.46-46.47,11.7-6.24,1.72-7.75,1.46-9.33,6.98-1.79,6.23,1.15,16.41,1.55,22.9,1.81,28.91,3,57.85,3.57,86.8.64,32.57.5,65.15-.42,97.71Z"/>
      <path class="st1" d="M173.58,195.14c-2.02,0-3.92-1.23-4.67-3.22-.98-2.58.31-5.47,2.9-6.45,64.93-24.69,131.69-46.48,198.44-64.77,2.67-.73,5.41.84,6.14,3.5.73,2.66-.84,5.41-3.5,6.14-66.44,18.2-132.9,39.89-197.52,64.47-.58.22-1.19.33-1.78.33Z"/>
      <path class="st1" d="M275.16,201.58c-.66,0-1.33-.13-1.97-.41-52.36-22.44-103.71-48.62-152.63-77.8-2.37-1.41-3.15-4.48-1.73-6.86,1.41-2.37,4.48-3.15,6.86-1.73,48.54,28.96,99.5,54.93,151.45,77.2,2.54,1.09,3.71,4.03,2.63,6.57-.81,1.9-2.66,3.03-4.6,3.03Z"/>
      <path class="st1" d="M379.9,181.11c-.93,0-1.86-.26-2.7-.8-48.18-31.01-105.52-54.41-160.96-77.04-4.79-1.95-9.57-3.91-14.34-5.86-2.56-1.05-3.78-3.97-2.73-6.52,1.05-2.56,3.97-3.78,6.52-2.73,4.77,1.95,9.55,3.9,14.33,5.86,55.87,22.8,113.63,46.37,162.59,77.89,2.32,1.49,2.99,4.59,1.5,6.91-.96,1.48-2.57,2.29-4.21,2.29Z"/>
      <path class="st1" d="M94.79,165.01c-1.82,0-3.58-1-4.46-2.73-1.25-2.46-.27-5.47,2.19-6.72,39.25-19.95,80.24-29.87,119.89-39.46,29.31-7.09,59.62-14.43,89.37-25.79,2.58-.99,5.47.31,6.46,2.89.99,2.58-.31,5.47-2.89,6.46-30.34,11.59-60.97,19-90.59,26.17-40.89,9.89-79.51,19.24-117.71,38.66-.73.37-1.5.54-2.26.54Z"/>
      <path class="st3" d="M49.95,167.3c62.53,20.71,119.03,58.55,183.14,73.59,2.9-4.22-2.48-9.17-7.05-11.44-8.55-4.24-17.09-8.48-25.64-12.72-30.42-15.09-60.89-30.2-92.51-42.59-15.83-6.2-32.07-10.62-48.12-16.1-4.59-1.57-12.24-7.13-16.81-2.91-5.79,5.35,2.03,10.53,6.98,12.17Z"/>
      <path class="st3" d="M267.55,224.03c54.25-15.99,108.5-31.98,163.16-46.4,12.53-3.31,25.3-6.55,38.23-6.02,3.18.13,6.89.86,8.27,3.79-3.28,3.85-8.44,5.26-13.29,6.47-38.88,9.71-77.76,19.43-116.64,29.14-37.08,9.26-76.14,23.66-113.95,28.14,4.14-9.9,25.08-12.42,34.22-15.12Z"/>
      <path class="st3" d="M236.14,435.45c-1.86-49.47-3.73-98.94-4.19-148.44-.11-11.35-.11-22.88,3.08-33.76.79-2.67,2.18-5.68,4.94-6.24,2.53,3.59,2.61,8.28,2.59,12.65-.13,35.09-.26,70.18-.39,105.27-.12,33.47,3.64,69.69-.65,102.77-7.42-5.6-5.08-23.93-5.39-32.26Z"/>
    </g>
  </g>
</svg>