<?xml version="1.0" encoding="UTF-8"?>
<svg id="_レイヤー_1" data-name="レイヤー_1" xmlns="http://www.w3.org/2000/svg" version="1.1" viewBox="0 0 1024 1024">
  <!-- Generator: Adobe Illustrator 30.2.1, SVG Export Plug-In . SVG Version: 2.1.1 Build 1)  -->
  <defs>
    <style>
      .st0 {
        fill: #f49914;
      }

      .st1 {
        fill: #fff;
      }

      .st2 {
        fill: #f9c319;
      }

      .st3 {
        fill: #d3960d;
      }

      .st4 {
        fill: #d67221;
      }

      .st5 {
        fill: #fbf38a;
      }
    </style>
  </defs>
  <rect class="st1" width="1024" height="1024"/>
  <g>
    <path class="st3" d="M537,116.54c-14.02-4.91-36.95-4.91-50.97,0l-338.98,118.63c-14.02,4.91-25.48,21.07-25.48,35.92v482.24c0,14.85,11.46,31.03,25.47,35.95l339.01,119.12c14.01,4.92,36.94,4.92,50.95,0l339.01-119.12c14.01-4.92,25.47-21.1,25.47-35.95v-482.24c0-14.85-11.47-31.01-25.48-35.92l-338.98-118.63Z"/>
    <path class="st3" d="M511.51,931.1c-11.36,0-22.72-1.59-31.77-4.77l-339-119.12c-21.76-7.65-38.17-30.81-38.17-53.88v-482.24c0-23.08,16.43-46.23,38.21-53.85l338.98-118.63c18.11-6.34,45.41-6.34,63.52,0l338.98,118.63c21.78,7.62,38.21,30.77,38.21,53.85v482.24c0,23.07-16.41,46.23-38.17,53.88l-339,119.12c-9.06,3.18-20.42,4.77-31.77,4.77ZM511.51,131.88c-7.14,0-14.27.86-19.21,2.59l-338.98,118.63c-6.44,2.25-12.76,11.16-12.76,17.98v482.24c0,6.83,6.33,15.76,12.77,18.02l339,119.12c9.85,3.46,28.49,3.46,38.35,0l339-119.12c6.45-2.26,12.77-11.19,12.77-18.02v-482.24c0-6.82-6.32-15.73-12.76-17.98l-338.98-118.63c-4.94-1.73-12.07-2.59-19.21-2.59Z"/>
  </g>
  <g>
    <path class="st0" d="M524.73,130.35c-7.27-2.54-19.16-2.54-26.43,0l-346.08,121.12c-7.27,2.54-13.21,10.92-13.21,18.62v484.26c0,7.7,5.94,16.09,13.21,18.64l346.1,121.62c7.26,2.55,19.15,2.55,26.42,0l346.1-121.62c7.26-2.55,13.21-10.94,13.21-18.64v-484.26c0-7.7-5.95-16.08-13.21-18.62l-346.09-121.12Z"/>
    <path class="st0" d="M511.51,913.53c-6.69,0-13.38-.96-18.84-2.88l-346.1-121.62c-14.01-4.92-24.57-19.83-24.57-34.68v-484.26c0-14.86,10.58-29.76,24.6-34.67l346.08-121.12c10.91-3.82,26.75-3.82,37.66,0l346.08,121.12c14.02,4.91,24.6,19.81,24.6,34.67v484.26c0,14.85-10.56,29.76-24.57,34.68l-346.1,121.62c-5.46,1.92-12.15,2.88-18.84,2.88ZM157.94,756.99l346,121.58c3.61,1.27,11.54,1.27,15.14,0l346-121.58c.74-.42,1.8-1.91,1.94-2.74v-484.05c-.15-.83-1.19-2.3-1.93-2.72l-345.99-121.08h0c-3.62-1.27-11.58-1.27-15.2,0l-345.99,121.08c-.73.41-1.78,1.89-1.93,2.72v484.05c.15.84,1.2,2.32,1.94,2.74ZM157.98,757.01h0s0,0,0,0ZM155.99,754.2s0,0,0,0c0,0,0,0,0,0ZM155.99,270.24h0s0,0,0,0ZM865.2,267.51h.01-.01ZM157.97,267.45s0,0,0,0c0,0,0,0,0,0Z"/>
  </g>
  <path class="st4" d="M541.56,859.46c0,12.65,9.76,19.57,21.7,15.38l294.18-103.37c11.93-4.19,21.7-17.97,21.7-30.62v-418.23c0-12.65-9.76-19.56-21.69-15.35l-294.2,103.8c-11.93,4.21-21.69,18-21.69,30.65v417.75Z"/>
  <g>
    <polygon class="st2" points="512 125.72 144.85 253.12 511.51 372.97 879.15 253.12 512 125.72"/>
    <path class="st2" d="M511.51,391.97c-1.99,0-3.99-.31-5.9-.94l-366.66-119.85c-7.75-2.53-13.02-9.73-13.1-17.89-.07-8.16,5.07-15.45,12.77-18.12l367.15-127.4c4.03-1.4,8.42-1.4,12.46,0l367.15,127.4c7.71,2.67,12.85,9.97,12.77,18.13s-5.35,15.36-13.11,17.89l-367.63,119.85c-1.91.62-3.9.94-5.89.94ZM204.36,252.58l307.16,100.4,308.05-100.43-307.57-106.72-307.64,106.75Z"/>
  </g>
  <path class="st5" d="M274.34,327.06c-1.49,0-3.01-.25-4.49-.77l-129.97-45.86c-7.03-2.48-10.72-10.19-8.24-17.22,2.48-7.03,10.19-10.72,17.22-8.24l129.97,45.86c7.03,2.48,10.72,10.19,8.24,17.22-1.96,5.55-7.17,9.01-12.73,9.01Z"/>
  <path class="st5" d="M369.2,364.85c-1.49,0-3.01-.25-4.49-.77l-37.79-13.33c-7.03-2.48-10.72-10.19-8.24-17.22,2.48-7.03,10.19-10.72,17.22-8.24l37.79,13.33c7.03,2.48,10.72,10.19,8.24,17.22-1.96,5.55-7.17,9.01-12.73,9.01Z"/>
  <g>
    <path class="st1" d="M196.33,497.26c0-15.46,2.59-29.99,7.77-43.6,5.18-13.6,11.98-25.05,20.41-34.32,8.42-9.28,18.09-16.58,28.99-21.92s22.11-8,33.63-8,20.72,3.05,27.6,9.16c6.88,6.11,10.32,14.84,10.32,26.21s-4.37,21.38-13.1,30.03c-8.74,8.66-19.98,14.3-33.74,16.93-2.48.31-4.1.46-4.87.46-5.72,0-8.58-2.24-8.58-6.73,0-1.7.81-3.25,2.44-4.64,1.62-1.39,5.29-2.86,11.02-4.41,8.81-2.47,15.89-6.34,21.22-11.6,5.33-5.25,8-11.32,8-18.21s-1.97-11.86-5.91-14.96c-3.94-3.09-9.39-4.64-16.35-4.64-16.85,0-32.2,8.7-46.04,26.09-13.84,17.39-20.76,37.84-20.76,61.34,0,17.62,3.55,31.19,10.67,40.7,7.11,9.51,17.39,14.26,30.84,14.26s25.63-3.52,36.53-10.55,19.9-16.12,27.02-27.25c.62-1.08,1.82-1.62,3.59-1.62s3.59.7,5.45,2.09,2.78,2.63,2.78,3.71-.16,1.93-.46,2.55c-6.81,14.69-17.55,26.48-32.24,35.37-14.69,8.89-30.42,13.34-47.19,13.34s-30.81-5.88-42.09-17.63c-11.29-11.75-16.93-29.14-16.93-52.18Z"/>
    <path class="st1" d="M325.27,520.91c0-13.92,4.99-26.32,14.96-37.22,9.97-10.9,20.6-16.35,31.89-16.35,6.34,0,9.51,1.62,9.51,4.87v1.39h5.33c4.33,0,6.49,2.01,6.49,6.03v1.39l-6.49,39.89c-.16.62-.23,1.47-.23,2.55,0,3.71,1.31,5.57,3.94,5.57,5.87,0,12.83-5.18,20.87-15.54,1.08-1.39,2.16-2.09,3.25-2.09,1.54,0,2.86,1.2,3.94,3.59,1.08,2.4,1.62,4.49,1.62,6.26s-.16,3.13-.46,4.06c-3.56,4.95-8.2,9.47-13.91,13.57-5.72,4.1-11.17,6.15-16.35,6.15s-9.2-1.35-12.06-4.06c-2.86-2.7-4.6-6.38-5.22-11.02v.46c-2.63,4.95-6.11,8.81-10.44,11.6-4.49,2.78-9.82,4.17-16,4.17s-11.17-2.36-14.96-7.07c-3.79-4.71-5.68-10.78-5.68-18.21ZM351.48,529.96c4.17,0,8.15-2.32,11.94-6.96,3.79-4.64,6.38-9.74,7.77-15.31l6.26-25.97c-8.97,0-17.01,4.25-24.12,12.76-7.11,8.5-10.67,16.54-10.67,24.12s2.94,11.36,8.81,11.36Z"/>
    <path class="st1" d="M425.46,515.81c2.78-8.81,8-18.86,15.65-30.15,7.65-11.28,13.88-16.93,18.67-16.93,6.8,0,10.2,2.63,10.2,7.88,0,3.4-.81,7.3-2.44,11.71-1.62,4.41-2.44,7.07-2.44,8,0,2.32,1.66,3.48,4.99,3.48s8.77-2.24,16.35-6.73c.31-.15.93-.23,1.85-.23s2.12.85,3.59,2.55c1.47,1.7,2.2,3.21,2.2,4.52s-.31,2.28-.93,2.9c-9.28,8.35-18.32,12.52-27.13,12.52-10.52,0-15.77-4.48-15.77-13.45,0-.31,1.24-5.33,3.71-15.07-.16,0-1.39,1.86-3.71,5.57-7.27,12.06-14.38,27.6-21.34,46.62-2.01,4.02-5.33,6.03-9.97,6.03-6.34,0-9.51-5.1-9.51-15.31v-1.85c0-16.7,2.4-33.01,7.19-48.93,2.32-6.96,6.03-10.44,11.13-10.44,2.01,0,3.63.62,4.87,1.86,1.24,1.24,1.86,2.78,1.86,4.64l-9.04,40.82Z"/>
    <path class="st1" d="M479.95,520.91c0-13.92,4.99-26.32,14.96-37.22,9.97-10.9,20.6-16.35,31.89-16.35,6.34,0,9.51,1.62,9.51,4.87v1.39h5.33c4.33,0,6.49,2.01,6.49,6.03v1.39l-6.49,39.89c-.16.62-.23,1.47-.23,2.55,0,3.71,1.31,5.57,3.94,5.57,5.87,0,12.83-5.18,20.87-15.54,1.08-1.39,2.16-2.09,3.25-2.09,1.54,0,2.86,1.2,3.94,3.59,1.08,2.4,1.62,4.49,1.62,6.26s-.16,3.13-.46,4.06c-3.56,4.95-8.2,9.47-13.92,13.57-5.72,4.1-11.17,6.15-16.35,6.15s-9.2-1.35-12.06-4.06c-2.86-2.7-4.6-6.38-5.22-11.02v.46c-2.63,4.95-6.11,8.81-10.44,11.6-4.49,2.78-9.82,4.17-16,4.17s-11.17-2.36-14.96-7.07c-3.79-4.71-5.68-10.78-5.68-18.21ZM506.16,529.96c4.17,0,8.15-2.32,11.94-6.96,3.79-4.64,6.38-9.74,7.77-15.31l6.26-25.97c-8.97,0-17.01,4.25-24.12,12.76-7.11,8.5-10.67,16.54-10.67,24.12s2.94,11.36,8.81,11.36Z"/>
    <path class="st1" d="M604.72,532.97c0-7.73,2.86-22.57,8.58-44.53-9.12,13.14-17.55,27.52-25.28,43.14-2.01,4.17-3.91,7.31-5.68,9.39-1.78,2.09-3.13,3.29-4.06,3.59-.93.31-2.24.46-3.94.46-6.03,0-9.04-4.87-9.04-14.61,0-17.93,3.02-35.95,9.04-54.04,1.7-5.25,4.64-7.88,8.81-7.88,1.54,0,2.94.46,4.17,1.39,1.24.93,1.86,2.01,1.86,3.25s-.08,2.09-.23,2.55c-3.87,12.52-6.73,26.83-8.58,42.9,6.8-17.01,13.6-29.53,20.41-37.57,6.8-8.04,12.67-12.06,17.62-12.06,2.16,0,4.09.62,5.8,1.86,1.7,1.24,2.55,2.94,2.55,5.1,0,7.11-2.47,20.41-7.42,39.89,11.9-31.38,24.35-47.08,37.34-47.08,6.96,0,10.44,3.48,10.44,10.44,0,4.49-1.9,12.1-5.68,22.84-3.79,10.75-5.68,18.98-5.68,24.7,0,4.02,1.86,6.03,5.57,6.03,1.08,0,1.86-.08,2.32-.23,4.02-.93,11.13-6.34,21.34-16.23.62-.62,1.54-.93,2.78-.93s2.67.74,4.29,2.2c1.62,1.47,2.43,2.55,2.43,3.25s-.16,1.36-.46,1.97c-4.95,6.81-11.02,12.29-18.21,16.47s-13.41,6.26-18.67,6.26h-.46c-4.95,0-8.81-1.51-11.6-4.52-2.78-3.01-4.17-6.84-4.17-11.48v-2.09c.77-7.11,4.25-20.49,10.44-40.12-6.8,5.72-16.47,22.42-28.99,50.09-2.47,5.1-5.33,7.65-8.58,7.65-6.03,0-9.04-4.02-9.04-12.06Z"/>
    <path class="st1" d="M683.57,515.12c0-11.44,3.75-22.07,11.25-31.89,7.5-9.82,16.58-14.73,27.25-14.73,6.34,0,11.6,1.78,15.77,5.33,4.17,3.56,6.26,8.35,6.26,14.38,0,8.5-3.48,15.39-10.44,20.64-6.96,5.26-17.47,9.36-31.54,12.29,2.16,6.65,7.73,9.97,16.7,9.97,12.37,0,24.04-5.25,35.02-15.77.62-.62,1.58-.93,2.9-.93s2.55.54,3.71,1.62c1.16,1.08,1.74,2.4,1.74,3.94s-.54,3.09-1.62,4.64c-3.87,5.41-9.97,10.4-18.32,14.96-8.35,4.56-17.05,6.84-26.09,6.84s-16.74-2.67-23.08-8c-6.34-5.33-9.51-13.1-9.51-23.31ZM722.41,483.58c-5.03,0-9.86,2.9-14.49,8.7-4.64,5.8-6.96,12.02-6.96,18.67,19.33-6.65,28.99-13.6,28.99-20.87,0-4.33-2.51-6.49-7.54-6.49Z"/>
    <path class="st1" d="M781.2,545.73c-7.73,0-13.68-3.13-17.86-9.39-4.17-6.26-6.26-14.8-6.26-25.63,0-3.25.08-5.72.23-7.42,2.01-22.42,7.88-45.76,17.63-70.04,4.79-11.6,10.74-21.22,17.86-28.87,7.11-7.65,14.61-11.48,22.5-11.48,4.64,0,8.35,1.51,11.13,4.52s4.17,6.77,4.17,11.25v1.86c-1.55,15.62-7.89,31.93-19.02,48.93-11.13,17.01-23.42,30.77-36.87,41.28-.62,4.95-.93,8.74-.93,11.36,0,12.52,3.71,18.79,11.13,18.79s16.31-5.41,25.74-16.23c1.08-1.08,2.44-1.62,4.06-1.62s3.17.66,4.64,1.97c1.47,1.32,2.2,2.94,2.2,4.87s-.93,3.91-2.78,5.91c-11.75,13.3-24.27,19.94-37.57,19.94ZM809.5,411.92c-6.49,0-13.03,8.27-19.6,24.81-6.57,16.55-11.02,32.24-13.33,47.08,9.12-10.21,17.51-21.8,25.16-34.79,7.65-12.99,11.56-23.81,11.71-32.47,0-3.09-1.32-4.64-3.94-4.64Z"/>
  </g>
  <g>
    <path class="st1" d="M346.96,596.75c-10.82,0-21.88,1.94-33.16,5.8-11.29,3.87-20.8,9.12-28.53,15.77-2.78,2.32-5.53,3.48-8.23,3.48s-5.03-1-6.96-3.01c-1.94-2.01-2.9-4.13-2.9-6.38s.77-4.06,2.32-5.45c10.36-9.43,22.65-16.66,36.87-21.68,14.22-5.02,29.41-7.54,45.57-7.54s30.18,3.91,42.09,11.71c11.9,7.81,17.86,18.32,17.86,31.54s-4.64,24.08-13.91,32.58c-7.73,7.42-18.94,11.75-33.63,12.99,8.96,1.55,16.77,5.1,23.42,10.67,6.65,5.57,9.97,12.76,9.97,21.57s-4.33,17.82-12.99,27.02c-8.66,9.2-19.71,16.58-33.16,22.15-13.45,5.57-26.01,8.35-37.69,8.35s-20.37-1.24-26.09-3.71c-5.72-2.47-8.58-5.88-8.58-10.2,0-34.32,3.13-63.5,9.39-87.55,6.26-24.04,14.65-36.06,25.16-36.06,3.86,0,7.03,1.93,9.51,5.8-6.96,9.12-12.41,24.66-16.35,46.61-3.94,21.96-5.91,42.52-5.91,61.69,0,2.17.08,3.63.23,4.41.46,2.01,3.09,3.01,7.89,3.01,17.01,0,31.96-4.37,44.88-13.1,12.91-8.73,19.36-18.28,19.36-28.64,0-5.72-1.62-10.36-4.87-13.92-3.25-3.55-7.23-6.07-11.94-7.54-4.72-1.47-9.43-2.63-14.15-3.48-4.72-.85-8.7-1.89-11.94-3.13-3.25-1.24-4.87-2.94-4.87-5.1,0-4.02,3.32-6.03,9.97-6.03l7.42.23h1.16c8.04,0,15.07-1.08,21.1-3.25,6.03-2.16,10.59-4.95,13.68-8.35,5.72-6.8,8.58-13.68,8.58-20.64,0-10.05-3.79-17.66-11.36-22.84-7.58-5.18-17.32-7.77-29.22-7.77Z"/>
    <path class="st1" d="M435.55,739.14c-7.73,0-14.07-2.78-19.02-8.35-4.95-5.57-7.42-12.52-7.42-20.87,0-12.68,4.13-23.92,12.41-33.74,8.27-9.82,17.97-14.73,29.1-14.73,6.49,0,11.94,2.32,16.35,6.96,4.41,4.64,6.61,10.52,6.61,17.63,0,1.55-.31,4.02-.93,7.42,10.05-1.86,20.02-8.35,29.92-19.48.62-.62,1.43-.93,2.44-.93s2.05.74,3.13,2.2c1.08,1.47,1.62,2.94,1.62,4.41s-.31,2.51-.93,3.13c-10.36,12.83-23.19,21.34-38.5,25.51-5.1,20.56-16.7,30.84-34.79,30.84ZM439.02,724.3c4.02,0,7.77-2.24,11.25-6.73,3.48-4.48,5.45-8.96,5.91-13.45-5.72-2.47-8.58-5.64-8.58-9.51s2.01-7.73,6.03-11.6c-.16-2.01-.66-3.48-1.51-4.41-.85-.93-2.05-1.39-3.59-1.39-5.88,0-10.9,3.44-15.07,10.32-4.17,6.88-6.26,14.03-6.26,21.45,0,10.2,3.94,15.31,11.83,15.31Z"/>
    <path class="st1" d="M483.78,713.86c0-13.92,4.99-26.32,14.96-37.22,9.97-10.9,20.6-16.35,31.89-16.35,6.34,0,9.51,1.62,9.51,4.87v1.39h5.33c4.33,0,6.49,2.01,6.49,6.03v1.39l-6.49,39.89c-.16.62-.23,1.47-.23,2.55,0,3.71,1.31,5.57,3.94,5.57,5.87,0,12.83-5.18,20.87-15.54,1.08-1.39,2.16-2.09,3.25-2.09,1.54,0,2.86,1.2,3.94,3.59,1.08,2.4,1.62,4.49,1.62,6.26s-.16,3.13-.46,4.06c-3.56,4.95-8.2,9.47-13.92,13.57-5.72,4.1-11.17,6.15-16.35,6.15s-9.2-1.35-12.06-4.06c-2.86-2.7-4.6-6.38-5.22-11.02v.46c-2.63,4.95-6.11,8.81-10.44,11.6-4.49,2.78-9.82,4.17-16,4.17s-11.17-2.36-14.96-7.07c-3.79-4.71-5.68-10.78-5.68-18.21ZM509.99,722.91c4.17,0,8.15-2.32,11.94-6.96,3.79-4.64,6.38-9.74,7.77-15.31l6.26-25.97c-8.97,0-17.01,4.25-24.12,12.76-7.11,8.5-10.67,16.54-10.67,24.12s2.94,11.36,8.81,11.36Z"/>
    <path class="st1" d="M583.96,708.76c2.78-8.81,8-18.86,15.65-30.15,7.65-11.28,13.88-16.93,18.67-16.93,6.8,0,10.2,2.63,10.2,7.88,0,3.4-.81,7.3-2.43,11.71-1.62,4.41-2.44,7.07-2.44,8,0,2.32,1.66,3.48,4.99,3.48s8.77-2.24,16.35-6.73c.31-.15.93-.23,1.86-.23s2.12.85,3.59,2.55c1.47,1.7,2.2,3.21,2.2,4.52s-.31,2.28-.93,2.9c-9.28,8.35-18.32,12.52-27.13,12.52-10.52,0-15.77-4.48-15.77-13.45,0-.31,1.24-5.33,3.71-15.07-.16,0-1.39,1.86-3.71,5.57-7.27,12.06-14.38,27.6-21.34,46.62-2.01,4.02-5.33,6.03-9.97,6.03-6.34,0-9.51-5.1-9.51-15.31v-1.85c0-16.7,2.4-33.01,7.19-48.93,2.32-6.96,6.03-10.44,11.13-10.44,2.01,0,3.63.62,4.87,1.86,1.24,1.24,1.86,2.78,1.86,4.64l-9.04,40.82Z"/>
    <path class="st1" d="M638.69,711.54c0-12.67,4.02-24.23,12.06-34.67,8.04-10.44,17.24-15.65,27.6-15.65,2.63,0,5.33.46,8.12,1.39,7.11-51.33,21.49-77,43.14-77,4.64,0,8.54,1.55,11.71,4.64,3.17,3.09,4.91,6.73,5.22,10.9.15,1.08.23,2.71.23,4.87,0,13.61-3.94,27.6-11.83,41.98-4.33,8.04-7.77,14.15-10.32,18.32s-7,10.82-13.33,19.94c-6.34,9.12-9.97,14.38-10.9,15.77v2.09c0,13.3,3.55,19.94,10.67,19.94,8.04,0,16.39-5.64,25.05-16.93.77-.77,2.01-1.16,3.71-1.16s3.32.7,4.87,2.09c1.54,1.39,2.32,3.01,2.32,4.87s-.62,3.63-1.86,5.33c-10.67,13.61-22.65,20.41-35.95,20.41-10.36,0-17.94-5.33-22.73-16-4.49,10.98-12.6,16.47-24.35,16.47-6.65,0-12.21-2.55-16.7-7.65-4.49-5.1-6.73-11.75-6.73-19.95ZM665.83,722.91c4.33,0,7.84-2.05,10.55-6.15,2.7-4.09,4.83-11.56,6.38-22.38l2.78-17.62c-8.2,0-15,3.4-20.41,10.2-5.41,6.8-8.12,14.38-8.12,22.73v2.55c.46,7.11,3.4,10.67,8.81,10.67ZM726.12,604.86c-5.1,0-9.2,4.17-12.29,12.52-1.7,4.17-3.44,9.32-5.22,15.42-1.78,6.11-4.37,21.68-7.77,46.73.62-.93,1.24-2.01,1.86-3.25.31-.31,2.16-3.13,5.57-8.46,3.4-5.33,6.41-10.32,9.04-14.96,2.63-4.64,5.49-10.9,8.58-18.78,3.09-7.89,4.64-14.73,4.64-20.52s-1.47-8.7-4.41-8.7Z"/>
  </g>
</svg>