<?xml version="1.0" encoding="UTF-8"?>
<svg id="_レイヤー_1" data-name="レイヤー_1" xmlns="http://www.w3.org/2000/svg" version="1.1" viewBox="0 0 512 512">
  <!-- Generator: Adobe Illustrator 29.5.1, SVG Export Plug-In . SVG Version: 2.1.0 Build 141)  -->
  <defs>
    <style>
      .st0 {
        fill: #642637;
      }
    </style>
  </defs>
  <path class="st0" d="M233.52,20.37c13.98-6.47,30.13-6.47,44.11,0l205.17,94.82c7.98,3.66,13.05,11.64,13.05,19.62,0,9.57-5.07,17.55-13.05,21.31l-205.17,94.8c-13.98,6.48-30.13,6.48-44.11,0L28.37,156.12c-7.97-3.75-13.07-11.73-13.07-21.31,0-7.98,5.1-15.96,13.07-19.62L233.52,20.37ZM482.81,235.33c7.98,3.66,13.05,11.64,13.05,19.62,0,9.57-5.07,17.55-13.05,21.31l-205.17,94.8c-13.98,6.48-30.13,6.48-44.11,0L28.37,276.26c-7.97-3.75-13.07-11.73-13.07-21.31,0-7.98,5.1-15.96,13.07-19.62l49.93-23.09,142.64,65.89c21.96,10.23,47.3,10.23,69.27,0l142.66-65.89,49.93,23.09ZM290.21,398.27l142.66-65.89,49.93,23.09c7.98,3.66,13.05,11.64,13.05,19.62,0,9.57-5.07,17.55-13.05,21.31l-205.17,94.8c-13.98,6.48-30.13,6.48-44.11,0L28.37,396.4c-7.97-3.75-13.07-11.73-13.07-21.31,0-7.98,5.1-15.96,13.07-19.62l49.93-23.09,142.64,65.89c21.96,10.23,47.3,10.23,69.27,0h0Z"/>
</svg>